<?xml version="1.0" encoding="utf-8"?>
<!-- Generator: Adobe Illustrator 26.0.1, SVG Export Plug-In . SVG Version: 6.00 Build 0)  -->
<svg version="1.1" id="Layer_1" xmlns="http://www.w3.org/2000/svg" xmlns:xlink="http://www.w3.org/1999/xlink" x="0px" y="0px"
	 viewBox="0 0 500 500" style="enable-background:new 0 0 500 500;" xml:space="preserve">
<style type="text/css">
	.st0{fill:#FFFFFF;}
</style>
<g>
	<path class="st0" d="M426.71,73.29l-41.54,41.54c34.64,34.64,56.12,82.44,56.12,135.18c0,52.74-21.48,100.54-56.12,135.18
		l41.54,41.54C471.97,381.46,500,318.93,500,250C500,181.07,471.97,118.54,426.71,73.29z"/>
	<path class="st0" d="M73.29,73.29C28.03,118.54,0,181.07,0,250c0,68.93,28.03,131.46,73.29,176.71l41.54-41.54
		C80.19,350.54,58.71,302.74,58.71,250c0-52.74,21.48-100.54,56.12-135.18L73.29,73.29z"/>
	<path class="st0" d="M336.74,163.26l-41.54,41.54c11.59,11.59,18.79,27.54,18.79,45.21c0,17.66-7.19,33.61-18.79,45.21l41.54,41.54
		c22.21-22.21,35.96-52.94,35.96-86.74C372.7,216.19,358.95,185.47,336.74,163.26z"/>
	<path class="st0" d="M163.26,163.26c-22.21,22.21-35.96,52.94-35.96,86.74c0,33.81,13.75,64.53,35.96,86.74l41.54-41.54
		c-11.59-11.59-18.79-27.54-18.79-45.21c0-17.66,7.19-33.61,18.79-45.21L163.26,163.26z"/>
</g>
</svg>
